<?xml version="1.0" encoding="UTF-8" standalone="no"?>
<svg
   width="803"
   height="678"
   viewBox="0 0 803 678"
   class="traveller-icon"
   version="1.1"
   id="svg355"
   sodipodi:docname="pants.svg"
   inkscape:version="1.1 (c68e22c387, 2021-05-23)"
   xmlns:inkscape="http://www.inkscape.org/namespaces/inkscape"
   xmlns:sodipodi="http://sodipodi.sourceforge.net/DTD/sodipodi-0.dtd"
   xmlns:xlink="http://www.w3.org/1999/xlink"
   xmlns="http://www.w3.org/2000/svg"
   xmlns:svg="http://www.w3.org/2000/svg">
  <sodipodi:namedview
     id="namedview357"
     pagecolor="#ffffff"
     bordercolor="#666666"
     borderopacity="1.0"
     inkscape:pageshadow="2"
     inkscape:pageopacity="0.0"
     inkscape:pagecheckerboard="0"
     showgrid="false"
     inkscape:zoom="0.73303835"
     inkscape:cx="401.75252"
     inkscape:cy="401.75252"
     inkscape:window-width="1366"
     inkscape:window-height="705"
     inkscape:window-x="-8"
     inkscape:window-y="-8"
     inkscape:window-maximized="1"
     inkscape:current-layer="svg355" />
  <defs
     id="defs187">
    <path
       d="M109 0C95.753 97.807 88.325 169.143 86.714 214.01 86.544 218.736 78 217 78 226s8.073 10.049 8 14c-1.333 72 6.333 161.667 23 269-42 24.667-68.333 35.667-79 33-10-12-30-18-30 0s25 24 30 22 20 12 43 6 39-13 48-9 21 11 36 3-1-39-8-55-33-153-33-239c0-57.333 11-147.333 33-270h-40z"
       id="path-1" />
    <path
       d="M52 0c6.274 82.844 10.904 146.66 13.89 191.448C66.136 195.143 71 193 74 202c3 9-6.278 11.41-6.023 15 5.1 71.832-.226 163.498-15.977 275 42.82 29.888 69.488 43.221 80 40 13 0 24-10.378 28-4s-3 26.565-22.298 19.918c-8.702 6.647-19.345 13.03-42.627 8.242C71.792 551.372 53.778 547.534 45 552c-8.778 4.466-18.726 9.769-34.124 2.565C-4.522 547.36 0 525.948 15.986 499.22S35.501 343.186 31 257.304C28 200.049 17.666 115.948 0 5l52-5z"
       id="path-3" />
    <path
       d="M13 0L0 116c24.264 7.333 46.753 12 67.466 14 20.713 2 44.09 2 70.13 0 13.61-39.667 39.65-58.833 78.118-57.5 38.467 1.333 63.323 22.5 74.568 63.5 20.713 6 41.722 9 63.027 9s43.202-5 65.691-15L406 0H13z"
       id="path-5" />
  </defs>
  <g
     id="d_final"
     fill="none"
     fill-rule="evenodd"
     transform="translate(-329.36419,-2.7283705)">
    <g
       id="men"
       transform="translate(328,-117)">
      <path
         d="m 170.796,767 c -32.842,0 -98.527,-0.986 -87.58,12.014 C 94.164,792.014 169,804 258,785 c 89,-19 249.807,-0.193 279,6 29.193,6.193 166.573,2 162.923,-11 -3.649,-13 -93.538,-19 -204.352,-19 -110.815,0 -291.933,6 -324.775,6 z"
         id="Path-9"
         fill="#9f4c64" />
      <g
         id="leg_left"
         transform="translate(94,210)">
        <g
           id="leg">
          <mask
             id="mask-2"
             fill="#ffffff">
            <use
               xlink:href="#path-1"
               id="use190"
               x="0"
               y="0"
               width="100%"
               height="100%" />
          </mask>
          <use
             id="Mask"
             fill="#e1b2a1"
             xlink:href="#path-1"
             x="0"
             y="0"
             width="100%"
             height="100%" />
          <path
             d="m 95,-14 h 58 c 15.333,30 13.667,49.667 -5,59 -18.667,9.333 -36.333,7 -53,-7 z"
             id="Rectangle-2"
             fill="#cc9b8a"
             mask="url(#mask-2)" />
          <path
             id="Rectangle-5"
             fill="#cc9b8a"
             mask="url(#mask-2)"
             d="m 63,129 24,26 19,92 -48,30 z" />
          <path
             d="m -16.067,533 c 4,10 27,23 46,23 8,5 28,13 49,2 14,-7.333 26.689,-15.667 38.067,-25 12.667,4 21.667,4 27,0 5.333,-4 7,-12.333 5,-25 8.753,-3.233 13.42,-4.567 14,-4 12.761,12.47 -0.919,25.88 15.933,29 27,5 16,34 -8,41 -24,7 -109,17 -146,7 -37,-10 -45,-58 -41,-48 z"
             id="Path-3"
             fill="#cc9b8a"
             mask="url(#mask-2)" />
        </g>
        <g
           id="hairs"
           transform="translate(84,33)"
           fill="#9d796c">
          <path
             d="m 8.582,336.513 c -2.085,8.478 -2.752,12.812 -2,13 0.751,0.188 2.751,-3.812 6,-12 z"
             id="Path-11"
             transform="rotate(12,9.433,343.016)" />
          <path
             d="m 11.582,63.789 c -2.085,8.479 -2.752,12.812 -2,13 0.751,0.188 2.751,-3.812 6,-12 z"
             id="Path-11-Copy-20"
             transform="rotate(12,12.433,70.292)" />
          <path
             d="m 26.742,210.503 c -2.085,8.479 -2.751,12.812 -2,13 0.751,0.188 2.751,-3.812 6,-12 z"
             id="Path-11-Copy-10"
             transform="rotate(-40,27.593,217.006)" />
          <path
             d="m 27.642,368.377 c -2.264,10.577 -3.02,15.96 -2.27,16.147 0.752,0.188 2.842,-4.861 6.27,-15.147 z"
             id="Path-11-Copy"
             transform="rotate(-8,28.367,376.453)" />
          <path
             d="m 42.642,100.377 c -2.264,10.577 -3.02,15.96 -2.27,16.147 0.752,0.188 2.842,-4.861 6.27,-15.147 z"
             id="Path-11-Copy-22"
             transform="rotate(-45,43.367,108.453)" />
          <path
             d="m 7.642,229.377 c -2.264,10.577 -3.02,15.96 -2.27,16.147 0.752,0.188 2.842,-4.861 6.27,-15.147 z"
             id="Path-11-Copy-11"
             transform="rotate(-8,8.367,237.453)" />
          <path
             d="m 58.045,448.168 c -2.264,10.576 -3.02,15.959 -2.27,16.147 0.752,0.187 2.842,-4.862 6.27,-15.147 z"
             id="Path-11-Copy-5"
             transform="rotate(-41,58.77,456.244)" />
          <path
             d="m 58.045,7.425 c -2.264,10.576 -3.02,15.959 -2.27,16.147 0.752,0.187 2.842,-4.862 6.27,-15.147 z"
             id="Path-11-Copy-24"
             transform="rotate(-41,58.77,15.5)" />
          <path
             d="m 38.045,309.168 c -2.264,10.576 -3.02,15.959 -2.27,16.147 0.752,0.187 2.842,-4.862 6.27,-15.147 z"
             id="Path-11-Copy-12"
             transform="rotate(-41,38.77,317.244)" />
          <path
             d="m 44.013,36.848 c -2.264,10.577 -3.02,15.96 -2.27,16.147 0.752,0.188 2.842,-4.861 6.27,-15.147 z"
             id="Path-11-Copy-25"
             transform="rotate(-41,44.738,44.924)" />
          <path
             d="m 30.24,444.507 c -2.092,6.713 -2.763,10.164 -2.012,10.352 0.752,0.188 2.756,-2.93 6.012,-9.352 z"
             id="Path-11-Copy-6"
             transform="rotate(-11,31.085,449.687)" />
          <path
             d="m 22.24,97.507 c -2.092,6.713 -2.763,10.164 -2.012,10.352 0.752,0.188 2.756,-2.93 6.012,-9.352 z"
             id="Path-11-Copy-26"
             transform="rotate(-11,23.085,102.687)" />
          <path
             d="m 10.24,305.507 c -2.092,6.713 -2.763,10.164 -2.012,10.352 0.752,0.188 2.756,-2.93 6.012,-9.352 z"
             id="Path-11-Copy-13"
             transform="rotate(-11,11.085,310.687)" />
          <path
             d="m 16.132,28.63 c -1.518,4.869 -2.005,7.372 -1.46,7.508 0.545,0.136 1.999,-2.125 4.361,-6.783 l -2.901,-0.726 z"
             id="Path-11-Copy-27"
             transform="rotate(27,16.745,32.387)" />
          <path
             d="m 23.41,423.687 c -1.722,5.525 -2.274,8.364 -1.656,8.519 0.619,0.154 2.268,-2.41 4.948,-7.696 z"
             id="Path-11-Copy-7"
             transform="rotate(24,24.105,427.95)" />
          <path
             d="m 29.378,151.368 c -1.722,5.524 -2.274,8.364 -1.656,8.518 0.618,0.155 2.267,-2.41 4.947,-7.695 z"
             id="Path-11-Copy-28"
             transform="rotate(-23,30.073,155.63)" />
          <path
             d="m 3.41,284.687 c -1.722,5.525 -2.274,8.364 -1.656,8.519 0.619,0.154 2.268,-2.41 4.948,-7.696 z"
             id="Path-11-Copy-14"
             transform="rotate(24,4.105,288.95)" />
          <path
             d="m 16.661,1.817 c -2.94,7.37 -3.882,11.159 -2.827,11.365 1.056,0.206 3.872,-3.216 8.447,-10.267 z"
             id="Path-11-Copy-29"
             transform="rotate(24,17.849,7.504)" />
          <path
             d="m 13.122,400.396 c -1.52,7.102 -2.028,10.717 -1.524,10.843 0.505,0.126 1.908,-3.264 4.21,-10.171 z"
             id="Path-11-Copy-2"
             transform="rotate(16,13.609,405.82)" />
          <path
             d="m 16.122,125.396 c -1.52,7.102 -2.028,10.717 -1.524,10.843 0.505,0.126 1.908,-3.264 4.21,-10.171 z"
             id="Path-11-Copy-30"
             transform="rotate(16,16.609,130.82)" />
          <path
             d="m 34.585,344.204 c -1.52,7.103 -2.028,10.717 -1.524,10.843 0.505,0.126 1.908,-3.264 4.21,-10.171 z"
             id="Path-11-Copy-15"
             transform="rotate(-38,35.072,349.627)" />
          <path
             d="m 40.553,71.885 c -1.52,7.102 -2.029,10.716 -1.524,10.842 0.504,0.126 1.908,-3.264 4.21,-10.17 z"
             id="Path-11-Copy-31"
             transform="rotate(-38,41.04,77.308)" />
          <path
             d="m 24.322,467.251 c -0.5,4.728 -0.497,7.154 0.007,7.28 0.505,0.126 1.327,-1.843 2.467,-5.909 l -2.474,-1.37 z"
             id="Path-11-Copy-8"
             transform="rotate(16,25.372,470.894)" />
          <path
             d="m 22.322,322.251 c -0.5,4.728 -0.497,7.154 0.007,7.28 0.505,0.126 1.327,-1.843 2.467,-5.909 l -2.474,-1.37 z"
             id="Path-11-Copy-16"
             transform="rotate(16,23.372,325.894)" />
          <path
             d="m 28.29,49.932 c -0.5,4.727 -0.498,7.154 0.007,7.28 0.504,0.126 1.327,-1.844 2.467,-5.91 z"
             id="Path-11-Copy-32"
             transform="rotate(16,29.34,53.574)" />
          <path
             d="m 53.858,428.89 c -0.5,4.726 -0.498,7.153 0.007,7.28 0.504,0.125 1.326,-1.844 2.466,-5.91 z"
             id="Path-11-Copy-9"
             transform="rotate(-71,54.908,432.532)" />
          <path
             d="m 32.858,185.825 c -0.5,4.727 -0.498,7.154 0.007,7.28 0.504,0.126 1.326,-1.843 2.466,-5.909 l -2.473,-1.37 z"
             id="Path-11-Copy-33"
             transform="rotate(-71,33.908,189.468)" />
          <path
             d="m 33.858,289.89 c -0.5,4.726 -0.498,7.153 0.007,7.28 0.504,0.125 1.326,-1.844 2.466,-5.91 z"
             id="Path-11-Copy-17"
             transform="rotate(-71,34.908,293.532)" />
          <path
             d="m 39.825,17.57 c -0.5,4.727 -0.497,7.153 0.007,7.28 0.505,0.126 1.327,-1.844 2.467,-5.91 z"
             id="Path-11-Copy-34"
             transform="rotate(-71,40.876,21.212)" />
          <path
             d="m 43.658,399.929 c -2.12,9.366 -2.927,14.113 -2.423,14.239 0.505,0.126 2.208,-4.397 5.11,-13.568 z"
             id="Path-11-Copy-3"
             transform="rotate(-42,43.717,407.05)" />
          <path
             d="m 23.658,260.929 c -2.12,9.366 -2.927,14.113 -2.423,14.239 0.505,0.126 2.208,-4.397 5.11,-13.568 z"
             id="Path-11-Copy-18"
             transform="rotate(-42,23.717,268.05)" />
          <path
             d="m 46.158,377.534 c -1.818,4.982 -2.51,7.507 -2.078,7.574 0.433,0.067 1.893,-2.339 4.38,-7.216 z"
             id="Path-11-Copy-4"
             transform="rotate(-42,46.208,381.322)" />
          <path
             d="m 26.158,238.534 c -1.818,4.982 -2.51,7.507 -2.078,7.574 0.433,0.067 1.893,-2.339 4.38,-7.216 z"
             id="Path-11-Copy-19"
             transform="rotate(-42,26.208,242.322)" />
        </g>
      </g>
      <path
         id="Rectangle-3"
         fill="#ffffff"
         transform="rotate(-12,101.117,364.89)"
         d="M 19.365,265.833 H 182.868 V 463.947 H 19.365 Z" />
      <g
         id="Group-4"
         transform="rotate(-12,1535.937,27.097)">
        <path
           id="Rectangle-4"
           stroke="#cd718e"
           stroke-width="4"
           d="M 2,2 H 20 V 20 H 2 Z" />
        <path
           id="Rectangle-4-Copy-4"
           fill="#efe2e2"
           d="m 38,0 h 83 V 22 H 38 Z" />
        <path
           id="Rectangle-4-Copy"
           stroke="#cd718e"
           stroke-width="4"
           d="M 2,40 H 20 V 58 H 2 Z" />
        <path
           id="Rectangle-4-Copy-5"
           fill="#efe2e2"
           d="m 38,38 h 83 V 60 H 38 Z" />
        <path
           id="Rectangle-4-Copy-2"
           stroke="#cd718e"
           stroke-width="4"
           d="M 2,78 H 20 V 96 H 2 Z" />
        <path
           id="Rectangle-4-Copy-6"
           fill="#efe2e2"
           d="m 38,76 h 83 V 98 H 38 Z" />
        <path
           id="Rectangle-4-Copy-3"
           stroke="#cd718e"
           stroke-width="4"
           d="m 2,116 h 18 v 18 H 2 Z" />
        <path
           id="Rectangle-4-Copy-7"
           fill="#efe2e2"
           d="m 38,114 h 83 v 22 H 38 Z" />
      </g>
      <g
         id="leg_right"
         transform="translate(520,224)">
        <g
           id="l"
           transform="translate(17)">
          <mask
             id="mask-4"
             fill="#ffffff">
            <use
               xlink:href="#path-3"
               id="use243"
               x="0"
               y="0"
               width="100%"
               height="100%" />
          </mask>
          <use
             id="use246"
             fill="#e1b2a1"
             xlink:href="#path-3"
             x="0"
             y="0"
             width="100%"
             height="100%" />
          <path
             d="M -7,-17 H 51 C 72.333,-4.333 74.667,11.333 58,30 41.333,48.667 19.667,54.333 -7,47 Z m 177.77,536 c 4,-10 -4,38 -41,48 -37,10 -122,0 -146,-7 -24,-7 -35,-36 -8,-41 16.85,-3.12 3.171,-16.53 15.932,-29 0.58,-0.567 5.247,0.767 14,4 -2,12.667 -0.333,21 5,25 5.334,4 14.334,4 27,0 11.379,9.333 24.068,17.667 38.068,25 21,11 41,3 49,-2 19,0 42,-13 46,-23 z"
             id="Combined-Shape"
             fill="#cc9b8a"
             mask="url(#mask-4)" />
        </g>
        <g
           id="hairs-copy"
           transform="matrix(-0.99756405,0.06975647,0.06975647,0.99756405,80.784441,37.283703)"
           fill="#9d796c">
          <path
             d="m 21.582,315.513 c -2.085,8.478 -2.752,12.812 -2,13 0.751,0.188 2.751,-3.812 6,-12 z"
             id="path250"
             transform="rotate(12,22.433,322.016)" />
          <path
             d="m 7.043,48.416 c -2.085,8.479 -2.751,12.812 -2,13 0.751,0.188 2.751,-3.812 6,-12 z"
             id="path252"
             transform="rotate(12,7.894,54.92)" />
          <path
             d="m 45.863,192.49 c -2.085,8.48 -2.751,12.813 -2,13 0.751,0.189 2.751,-3.811 6,-12 z"
             id="path254"
             transform="rotate(-40,46.714,198.994)" />
          <path
             d="m 40.642,347.377 c -2.264,10.577 -3.02,15.96 -2.27,16.147 0.752,0.188 2.842,-4.861 6.27,-15.147 z"
             id="path256"
             transform="rotate(-8,41.367,355.453)" />
          <path
             d="m 52.581,93.898 c -2.264,10.576 -3.02,15.959 -2.269,16.147 0.751,0.187 2.841,-4.862 6.27,-15.147 l -4,-1 z"
             id="path258"
             transform="rotate(-45,53.306,101.974)" />
          <path
             d="m 11.131,217.568 c -2.264,10.576 -3.02,15.959 -2.27,16.146 0.752,0.188 2.842,-4.86 6.27,-15.146 z"
             id="path260"
             transform="rotate(19,11.856,225.644)" />
          <path
             d="m 71.045,427.168 c -2.264,10.576 -3.02,15.959 -2.27,16.147 0.752,0.187 2.842,-4.862 6.27,-15.147 z"
             id="path262"
             transform="rotate(-41,71.77,435.244)" />
          <path
             d="m 8.379,113.328 c -5.07,8.403 -7.23,12.698 -6.478,12.886 0.751,0.187 4.512,-3.799 11.282,-11.96 z"
             id="path264"
             transform="rotate(3,7.47,119.774)" />
          <path
             d="m 51.045,288.168 c -2.264,10.576 -3.02,15.959 -2.27,16.147 0.752,0.187 2.842,-4.862 6.27,-15.147 z"
             id="path266"
             transform="rotate(-41,51.77,296.244)" />
          <path
             d="m 57.013,15.848 c -2.264,10.577 -3.02,15.96 -2.27,16.147 0.752,0.188 2.842,-4.861 6.27,-15.147 z"
             id="path268"
             transform="rotate(-41,57.738,23.924)" />
          <path
             d="m 43.24,423.507 c -2.092,6.713 -2.763,10.164 -2.012,10.352 0.752,0.188 2.756,-2.93 6.012,-9.352 z"
             id="path270"
             transform="rotate(-11,44.085,428.687)" />
          <path
             d="m 35.24,76.507 c -2.092,6.713 -2.763,10.164 -2.012,10.352 0.752,0.188 2.756,-2.93 6.012,-9.352 z"
             id="path272"
             transform="rotate(-11,36.085,81.687)" />
          <path
             d="m 23.24,284.507 c -2.092,6.713 -2.763,10.164 -2.012,10.352 0.752,0.188 2.756,-2.93 6.012,-9.352 z"
             id="path274"
             transform="rotate(-11,24.085,289.687)" />
          <path
             d="m 19.728,24.024 c -1.518,4.87 -2.005,7.372 -1.46,7.508 0.545,0.137 1.999,-2.124 4.361,-6.783 z"
             id="path276"
             transform="rotate(27,20.34,27.781)" />
          <path
             d="m 36.41,402.687 c -1.722,5.525 -2.274,8.364 -1.656,8.519 0.619,0.154 2.268,-2.41 4.948,-7.696 z"
             id="path278"
             transform="rotate(24,37.105,406.95)" />
          <path
             d="m 42.378,130.368 c -1.722,5.524 -2.274,8.364 -1.656,8.518 0.618,0.155 2.267,-2.41 4.947,-7.695 z"
             id="path280"
             transform="rotate(-23,43.073,134.63)" />
          <path
             d="m 11.304,264.244 c -1.722,5.525 -2.274,8.364 -1.656,8.519 0.618,0.154 2.267,-2.41 4.947,-7.696 z"
             id="path282"
             transform="rotate(24,12,268.507)" />
          <path
             d="m 27.017,177.962 c -1.722,5.525 -2.274,8.364 -1.656,8.519 0.618,0.154 2.268,-2.41 4.948,-7.696 z"
             id="Path-11-Copy-21"
             transform="rotate(24,27.712,182.225)" />
          <path
             d="m 15.4,139.047 c 0.746,6.67 1.428,10.083 2.047,10.238 0.618,0.155 0.975,-3.433 1.072,-10.763 l -3.118,0.525 z"
             id="Path-11-Copy-35"
             transform="rotate(7,16.96,143.906)" />
          <path
             d="m 15.54,89.685 c -1.722,5.524 -2.274,8.364 -1.656,8.518 0.618,0.155 2.268,-2.41 4.947,-7.695 z"
             id="Path-11-Copy-23"
             transform="rotate(24,16.235,93.947)" />
          <path
             d="M 6.825,5.7 C 3.885,13.07 2.942,16.858 3.998,17.064 5.054,17.271 7.869,13.848 12.445,6.798 Z"
             id="path287"
             transform="rotate(24,8.012,11.387)" />
          <path
             d="m 28.117,379.257 c -1.52,7.102 -2.028,10.716 -1.524,10.842 0.505,0.126 1.908,-3.264 4.21,-10.17 z"
             id="path289"
             transform="rotate(16,28.604,384.68)" />
          <path
             d="m 3.917,171.396 c -1.52,7.102 -2.029,10.717 -1.524,10.843 0.504,0.126 1.908,-3.264 4.21,-10.171 z"
             id="path291"
             transform="rotate(16,4.403,176.82)" />
          <path
             d="m 47.585,323.204 c -1.52,7.103 -2.028,10.717 -1.524,10.843 0.505,0.126 1.908,-3.264 4.21,-10.171 z"
             id="path293"
             transform="rotate(-38,48.072,328.627)" />
          <path
             d="m 53.553,50.885 c -1.52,7.102 -2.029,10.716 -1.524,10.842 0.504,0.126 1.908,-3.264 4.21,-10.17 z"
             id="path295"
             transform="rotate(-38,54.04,56.308)" />
          <path
             d="m 50.43,447.34 c -0.5,4.727 -0.498,7.154 0.007,7.28 0.505,0.126 1.327,-1.844 2.467,-5.91 z"
             id="path297"
             transform="rotate(16,51.48,450.982)" />
          <path
             d="m 35.322,301.251 c -0.5,4.728 -0.497,7.154 0.007,7.28 0.505,0.126 1.327,-1.843 2.467,-5.909 l -2.474,-1.37 z"
             id="path299"
             transform="rotate(16,36.372,304.894)" />
          <path
             d="m 41.29,28.932 c -0.5,4.727 -0.498,7.154 0.007,7.28 0.504,0.126 1.327,-1.844 2.467,-5.91 z"
             id="path301"
             transform="rotate(16,42.34,32.574)" />
          <path
             d="m 65.86,407.959 c -0.5,4.727 -0.498,7.154 0.007,7.28 0.504,0.126 1.327,-1.844 2.467,-5.909 z"
             id="path303"
             transform="rotate(-71,66.91,411.602)" />
          <path
             d="m 45.858,164.825 c -0.5,4.727 -0.498,7.154 0.007,7.28 0.504,0.126 1.326,-1.843 2.466,-5.909 l -2.473,-1.37 z"
             id="path305"
             transform="rotate(-71,46.908,168.468)" />
          <path
             d="m 49.571,264.69 c -0.5,4.727 -0.497,7.154 0.007,7.28 0.505,0.126 1.327,-1.844 2.467,-5.91 z"
             id="path307"
             transform="rotate(-71,50.622,268.332)" />
          <path
             d="m 32.858,0.746 c -0.5,4.727 -0.498,7.154 0.007,7.28 0.504,0.126 1.326,-1.844 2.466,-5.91 L 32.858,0.747 Z"
             id="path309"
             transform="rotate(-42,33.908,4.388)" />
          <path
             d="m 56.658,378.929 c -2.12,9.366 -2.927,14.113 -2.423,14.239 0.505,0.126 2.208,-4.397 5.11,-13.568 z"
             id="path311"
             transform="rotate(-42,56.717,386.05)" />
          <path
             d="m 36.658,239.929 c -2.12,9.366 -2.927,14.113 -2.423,14.239 0.505,0.126 2.208,-4.397 5.11,-13.568 z"
             id="path313"
             transform="rotate(-42,36.717,247.05)" />
          <path
             d="m 59.158,356.534 c -1.818,4.982 -2.51,7.507 -2.078,7.574 0.433,0.067 1.893,-2.339 4.38,-7.216 z"
             id="path315"
             transform="rotate(-42,59.208,360.322)" />
          <path
             d="m 48.021,221.856 c -1.817,4.982 -2.51,7.507 -2.077,7.574 0.433,0.067 1.893,-2.339 4.38,-7.217 z"
             id="path317"
             transform="rotate(-42,48.072,225.644)" />
        </g>
      </g>
      <path
         d="m 125.75,79.659 c -21.72,16.474 -50.284,152.476 -54.264,160.436 -3.98,7.96 -13.594,14.968 -9.282,46.806 4.313,31.84 19.263,56.492 22.248,53.507 2.985,-2.984 -16.945,-41.61 -12.966,-41.61 3.98,0 17.783,48.609 24.748,52.589 6.965,3.98 -18.778,-56.57 -14.798,-56.57 3.98,0 18.705,58.134 24.675,58.134 5.97,0 -18.705,-65.098 -15.72,-60.123 2.984,4.975 18.064,50.495 25.03,52.485 6.964,1.99 -22.046,-59.45 -18.066,-73.38 2.654,-9.286 7.077,-13.09 13.27,-11.414 0,0 2.315,0.03 6.943,0.088 -2.415,-9.495 -17.228,-12.552 -17.228,-20.512 0,-7.96 33.373,-130.491 67.293,-147.728 0,0 -20.162,-29.183 -41.882,-12.708 z"
         id="Path-2"
         fill="#e1b2a1"
         transform="rotate(-9,114.374,213.785)" />
      <g
         id="Group-2"
         transform="translate(183,117)">
        <mask
           id="mask-6"
           fill="#ffffff">
          <use
             xlink:href="#path-5"
             id="use322"
             x="0"
             y="0"
             width="100%"
             height="100%" />
        </mask>
        <use
           id="use325"
           fill="#ffffff"
           xlink:href="#path-5"
           x="0"
           y="0"
           width="100%"
           height="100%" />
        <g
           mask="url(#mask-6)"
           fill="#ffb7cd"
           id="g340">
          <g
             transform="translate(0,-18)"
             id="g338">
            <path
               d="m 12.541,72 c -5,0 -18,-31 -10,-34 5.333,-2 8.667,0 10,6 5.333,-8 10,-10 14,-6 6,6 -9,34 -14,34 z"
               id="Path-10" />
            <path
               d="m 56.541,117 c -5,0 -18,-31 -10,-34 5.333,-2 8.667,0 10,6 5.333,-8 10,-10 14,-6 6,6 -9,34 -14,34 z"
               id="Path-10-Copy" />
            <path
               d="m 84.541,54 c -5,0 -18,-31 -10,-34 5.333,-2 8.667,0 10,6 5.333,-8 10,-10 14,-6 6,6 -9,34 -14,34 z"
               id="Path-10-Copy-2" />
            <path
               d="m 156.541,81 c -5,0 -18,-31 -10,-34 5.333,-2 8.667,0 10,6 5.333,-8 10,-10 14,-6 6,6 -9,34 -14,34 z"
               id="Path-10-Copy-3" />
            <path
               d="m 304.541,104 c -5,0 -18,-31 -10,-34 5.333,-2 8.667,0 10,6 5.333,-8 10,-10 14,-6 6,6 -9,34 -14,34 z"
               id="Path-10-Copy-5" />
            <path
               d="m 349.541,36 c -5,0 -18,-31 -10,-34 5.333,-2 8.667,0 10,6 5.333,-8 10,-10 14,-6 6,6 -9,34 -14,34 z"
               id="Path-10-Copy-6" />
            <path
               d="m 427.541,80 c -5,0 -18,-31 -10,-34 5.333,-2 8.667,0 10,6 5.333,-8 10,-10 14,-6 6,6 -9,34 -14,34 z"
               id="Path-10-Copy-7" />
            <path
               d="m 236.08,45.196 c -3.221,0 -11.597,-19.974 -6.443,-21.907 3.437,-1.289 5.585,0 6.444,3.866 3.436,-5.155 6.443,-6.444 9.02,-3.866 3.867,3.866 -5.799,21.907 -9.02,21.907 z"
               id="Path-10-Copy-4" />
            <path
               d="m 305.08,162.196 c -3.221,0 -11.597,-19.974 -6.443,-21.907 3.437,-1.289 5.585,0 6.444,3.866 3.436,-5.155 6.443,-6.444 9.02,-3.866 3.867,3.866 -5.799,21.907 -9.02,21.907 z"
               id="Path-10-Copy-10" />
            <path
               d="m 123.08,150.196 c -3.221,0 -11.597,-19.974 -6.443,-21.907 3.437,-1.289 5.585,0 6.444,3.866 3.436,-5.155 6.443,-6.444 9.02,-3.866 3.867,3.866 -5.799,21.907 -9.02,21.907 z"
               id="Path-10-Copy-8" />
            <path
               d="m 373.08,138.196 c -3.221,0 -11.597,-19.974 -6.443,-21.907 3.437,-1.289 5.585,0 6.444,3.866 3.436,-5.155 6.443,-6.444 9.02,-3.866 3.867,3.866 -5.799,21.907 -9.02,21.907 z"
               id="Path-10-Copy-9" />
          </g>
        </g>
        <path
           d="m 202.5,236.443 c 56.057,0 116.5,-23 116.5,-93 0,-48.474 -20.36,-81.914 -54,-98 -14.939,-7.144 -18.5,13 -46.5,13 -35,0 -34.595,-20.7 -44.5,-17 -37.769,14.108 -56,51.496 -56,97 0,57.437 28.443,98 84.5,98 z"
           id="Oval-2"
           fill-opacity="0.1"
           fill="#000000"
           mask="url(#mask-6)" />
      </g>
      <g
         id="tickets"
         transform="rotate(13,-374.34,2811.2)">
        <g
           id="Group-6-Copy"
           transform="rotate(9,4.557,72.766)"
           fill="#663244">
          <path
             d="M 128.862,68 H 4.5 A 4.5,4.5 0 0 1 0,63.5 V 4.5 A 4.5,4.5 0 0 1 4.5,0 h 124.362 c -0.014,0.15 -0.02,0.3 -0.02,0.453 0,2.754 2.218,4.987 4.955,4.987 2.737,0 4.955,-2.233 4.955,-4.987 0,-0.152 -0.006,-0.304 -0.02,-0.453 H 177.5 a 4.5,4.5 0 0 1 4.5,4.5 v 59 a 4.5,4.5 0 0 1 -4.5,4.5 h -38.768 c 0.014,-0.15 0.02,-0.3 0.02,-0.453 0,-2.754 -2.218,-4.987 -4.955,-4.987 -2.737,0 -4.955,2.233 -4.955,4.987 0,0.152 0.006,0.304 0.02,0.453 z"
             id="path344" />
        </g>
        <g
           id="Group-6"
           transform="rotate(15,8.149,79.68)">
          <path
             d="M 128.862,68 H 4.5 A 4.5,4.5 0 0 1 0,63.5 V 4.5 A 4.5,4.5 0 0 1 4.5,0 h 124.362 c -0.014,0.15 -0.02,0.3 -0.02,0.453 0,2.754 2.218,4.987 4.955,4.987 2.737,0 4.955,-2.233 4.955,-4.987 0,-0.152 -0.006,-0.304 -0.02,-0.453 H 177.5 a 4.5,4.5 0 0 1 4.5,4.5 v 59 a 4.5,4.5 0 0 1 -4.5,4.5 h -38.768 c 0.014,-0.15 0.02,-0.3 0.02,-0.453 0,-2.754 -2.218,-4.987 -4.955,-4.987 -2.737,0 -4.955,2.233 -4.955,4.987 0,0.152 0.006,0.304 0.02,0.453 z"
             id="path347"
             fill="#7f4156" />
          <path
             d="m 150.293,36.595 c -0.04,0.041 -0.098,0.113 -0.164,0.199 -1.46,-0.066 -3.083,-0.074 -4.19,-0.184 -0.49,-0.049 -0.862,0.09 -1.215,0.45 l -0.041,0.043 c -0.146,0.15 -0.228,0.298 -0.067,0.43 l 3.773,2.337 c -0.244,0.639 -0.34,1.186 -0.106,1.426 a 0.379,0.379 0 0 0 0.06,0.05 c 0.013,0.021 0.03,0.042 0.048,0.06 0.234,0.24 0.767,0.143 1.39,-0.107 l 2.276,3.872 c 0.129,0.165 0.273,0.081 0.418,-0.068 0,0 0.042,-0.043 0.043,-0.043 0.351,-0.361 0.486,-0.745 0.438,-1.247 -0.106,-1.137 -0.114,-2.803 -0.179,-4.301 a 2.46,2.46 0 0 0 0.195,-0.168 l 4.563,-4.684 5.784,9.37 c 0.35,0.436 0.683,0.266 1.005,-0.064 l 0.092,-0.095 c 0.209,-0.214 0.252,-0.56 0.111,-0.887 l -2.632,-12.8 4.357,-4.472 c 0.447,-0.46 1.503,-2.73 0.796,-3.456 a 0.748,0.748 0 0 0 -0.057,-0.052 0.754,0.754 0 0 0 -0.05,-0.058 c -0.707,-0.726 -2.92,0.358 -3.367,0.817 l -4.358,4.472 -12.47,-2.702 c -0.318,-0.144 -0.654,-0.1 -0.863,0.114 l -0.093,0.095 c -0.322,0.33 -0.488,0.673 -0.063,1.032 l 9.13,5.936 z"
             id="Fill-1"
             fill="#ffffff"
             transform="rotate(45,155.906,33.582)" />
        </g>
      </g>
      <path
         d="M 665.63,13.562 C 643.908,30.037 615.344,166.04 611.364,174 c -3.98,7.96 -13.595,14.967 -9.282,46.806 4.312,31.839 19.263,56.492 22.248,53.507 2.985,-2.985 -16.946,-41.61 -12.966,-41.61 3.98,0 14.114,42.137 26.024,45.546 6.373,1.823 -3.363,-10.156 -9.746,-24.434 -5.546,-12.404 -8.179,-25.093 -6.328,-25.093 3.98,0 10.544,42.593 26.567,46.078 8.237,1.791 -1.922,-5.656 -8.846,-20.537 -6.545,-14.065 -7.4,-30.02 -5.325,-27.507 4.273,5.171 11.448,40.696 24.214,42.646 6.294,0.962 -2.53,-8.913 -8.547,-23.684 -6.186,-15.19 -9.215,-33.465 -9.673,-41.898 -0.601,-11.09 0.772,-19.96 4.12,-26.609 1.8,-1.1 5.072,-3.223 9.819,-6.372 -9.07,-8.169 -12.218,-0.509 -12.218,-8.468 0,-7.96 32.165,-118.863 66.085,-136.1 0,0 -20.161,-29.182 -41.882,-12.708 z"
         id="Path-2-Copy"
         fill="#e1b2a1"
         transform="matrix(-0.97437006,0.22495105,0.22495105,0.97437006,1259.4605,-143.49739)" />
    </g>
  </g>
</svg>
